<svg xmlns="http://www.w3.org/2000/svg" viewBox="0 0 128 128"><path fill="#eeeeee" d="M6.306 6.306h39.911v7.084H6.306zM31.774 28.417h84.36a5.56 5.56 0 0 1 5.56 5.56v1.569H33.271z"/><circle cx="52.43" cy="108.035" r="13.659" fill="#6d7a84"/><circle cx="97.087" cy="108.035" r="13.659" fill="#6d7a84"/><circle cx="97.087" cy="108.035" r="5.451" fill="#dfeef4"/><circle cx="52.43" cy="108.035" r="5.451" fill="#dfeef4"/><path fill="#303841" d="M116.246 35.546l-10.707 50.995h-61.56L33.271 35.546z"/><path fill="#00adb5" d="M31.774 28.417L28.619 13.39h7.11l3.155 15.027zM83.536 86.541H65.982l-7.716 9.14.047.041a13.685 13.685 0 0 1 5.33 4.525l.023.019 5.606-6.641h10.973l5.607 6.641.021-.018a13.711 13.711 0 0 1 5.332-4.527l.047-.039z"/><g fill="#dd4e4e"><path d="M102.022 51.466H47.5a1.75 1.75 0 0 1 0-3.5h54.526a1.75 1.75 0 0 1 0 3.5zM100.005 62.793H49.513a1.75 1.75 0 0 1 0-3.5h50.492a1.75 1.75 0 0 1 0 3.5zM97.971 74.121H51.547a1.75 1.75 0 0 1 0-3.5h46.424a1.75 1.75 0 0 1 0 3.5z"/></g></svg>